<?xml version="1.0" encoding="UTF-8"?>
<svg width="256" height="256" viewBox="0 0 256 256" xmlns="http://www.w3.org/2000/svg">
  <!-- Fish hook themed icon for UserModeHookHelper -->
  <defs>
    <linearGradient id="hookGrad" x1="0%" y1="0%" x2="0%" y2="100%">
      <stop offset="0%" stop-color="#35D3D0"/>
      <stop offset="60%" stop-color="#1CA7A4"/>
      <stop offset="100%" stop-color="#1F3E5A"/>
    </linearGradient>
    <filter id="innerShadow" x="-20%" y="-20%" width="140%" height="140%">
      <feOffset dx="0" dy="2"/>
      <feGaussianBlur stdDeviation="3" result="blur"/>
      <feComposite in="blur" in2="SourceAlpha" operator="arithmetic" k2="-1" k3="1" result="shadow"/>
      <feColorMatrix in="shadow" type="matrix" values="0 0 0 0 0.08 0 0 0 0 0.15 0 0 0 0 0.18 0 0 0 0.55 0"/>
      <feBlend in="SourceGraphic" mode="normal"/>
    </filter>
  </defs>
  <rect width="256" height="256" fill="none"/>
  <!-- Hook shape: stylized J with barb -->
  <path d="M136 28c-11.5 0-20 8.8-20 20v118c0 18.2-12.4 32.7-28.4 32.7-14.6 0-26.6-11.2-28.1-25.6-.5-4.6-4.3-8.1-9-8.1-5.5 0-9.8 4.9-9.3 10.3 2.5 28.2 25.9 50.4 53.9 50.4 30.3 0 54.9-26.3 54.9-58.7V48c0-2.2 1.8-4 4-4h18c4.4 0 8-3.6 8-8s-3.6-8-8-8h-18c-8.2 0-15.6 3.2-20.9 8.5C154 26.9 168 24 182 24c6.6 0 12 5.4 12 12 0 5.4-3.6 10-8.6 11.5C196 54 204 65.7 204 80c0 17.7-14.3 36-32 36-13.3 0-24-10.7-24-24 0-10.2 6.5-19 15.5-22.3V96c0 4.4 3.1 8 7.5 8s7.5-3.6 7.5-8V64c0-8.8-7.2-16-16-16h-16z" fill="url(#hookGrad)" filter="url(#innerShadow)"/>
  <!-- Subtle four-dot motif suggesting UMHH (only visible large) -->
  <g fill="#D8E2E8" opacity="0.75">
    <circle cx="200" cy="210" r="5"/>
    <circle cx="216" cy="210" r="5"/>
    <circle cx="200" cy="226" r="5"/>
    <circle cx="216" cy="226" r="5"/>
  </g>
</svg>
